<?xml version="1.0" encoding="utf-8"?>
<!-- Generator: Adobe Illustrator 19.2.0, SVG Export Plug-In . SVG Version: 6.00 Build 0)  -->
<svg version="1.1" id="Layer_1" xmlns="http://www.w3.org/2000/svg" xmlns:xlink="http://www.w3.org/1999/xlink" x="0px" y="0px"
	 viewBox="0 0 232.3 50.4" style="enable-background:new 0 0 232.3 50.4;" xml:space="preserve">
<style type="text/css">
	.st0{fill-rule:evenodd;clip-rule:evenodd;fill:#9E8D36;}
</style>
<g>
	<g>
		<path class="st0" d="M79.7,37.7h3v-9.2h8.1v-2.9h-8.1v-9.9h10.2v-3H79.7V37.7z M129.6,21.7c0-5-4.1-9-9.4-9h-3.9v25h3v-6.8l1.1,0
			c0.7,0,1.4-0.1,2.1-0.3l4.2,7.1h3.4l-4.8-8.2C127.9,27.8,129.6,25,129.6,21.7z M120.3,27.9h-1.1V15.7h0.9c3.7,0,6.4,2.6,6.4,6.1
			C126.6,25.1,123.9,27.9,120.3,27.9z M152.8,37.7h3v-25h-3V37.7z M179.2,15.6h5.2v22.2h3V15.6h4.9v-3h-13.1V15.6z M232.3,12.7
			h-15.6v3h10.7l-11.8,22.1h16.2v-3h-11.2L232.3,12.7z M33.2,0l-6.4,9.6L20.4,0H6.6L0,10.1l26.7,40.3l26.7-40.3L46.6,0H33.2z
			 M2.7,10.1L7.9,2h11.2l6.4,9.7l-4.5,6.6H7.9L2.7,10.1z M9.1,20.2h10.8l-5.5,7.9L9.1,20.2z M25.9,45.5l-9-13.7h9V45.5z M25.9,30
			h-10l6.4-9.8h3.6V30z M23.5,18.3l3.3-4.8l3.3,4.8H23.5z M27.7,45.5V31.8h9L27.7,45.5z M27.7,30v-9.8h3.6l6.4,9.8H27.7z M39.2,28
			l-5.5-7.8h10.6L39.2,28z M45.6,18.3H32.5L28,11.7L34.3,2h11.2l5.4,8.2L45.6,18.3z"/>
	</g>
</g>
<g>
</g>
<g>
</g>
<g>
</g>
<g>
</g>
<g>
</g>
<g>
</g>
</svg>
